<?xml version="1.0" encoding="UTF-8"?>
<svg xmlns="http://www.w3.org/2000/svg" xmlns:xlink="http://www.w3.org/1999/xlink" width="50px" height="50px" viewBox="0 0 50 50" version="1.1">
<g id="surface1">
<path style=" stroke:none;fill-rule:nonzero;fill:rgb(0%,0%,0%);fill-opacity:1;" d="M 49.621094 14.644531 L 35.355469 0.378906 C 35.113281 0.136719 34.785156 0 34.4375 0 L 8.808594 0 C 3.953125 0 0 3.953125 0 8.808594 L 0 41.191406 C 0 46.050781 3.953125 50 8.808594 50 L 41.191406 50 C 46.050781 50 50 46.050781 50 41.191406 L 50 15.5625 C 50 15.214844 49.863281 14.886719 49.621094 14.644531 Z M 35.519531 4.210938 L 45.789062 14.480469 L 35.519531 14.480469 Z M 41.191406 47.40625 L 8.808594 47.40625 C 5.382812 47.40625 2.59375 44.617188 2.59375 41.191406 L 2.59375 8.808594 C 2.59375 5.382812 5.382812 2.59375 8.808594 2.59375 L 32.925781 2.59375 L 32.925781 15.777344 C 32.925781 16.492188 33.507812 17.074219 34.222656 17.074219 L 47.40625 17.074219 L 47.40625 41.191406 C 47.40625 44.617188 44.617188 47.40625 41.191406 47.40625 Z M 41.191406 47.40625 "/>
<path style=" stroke:none;fill-rule:nonzero;fill:rgb(0%,0%,0%);fill-opacity:1;" d="M 22.445312 11.328125 C 21.175781 10.058594 19.488281 9.359375 17.695312 9.359375 C 15.902344 9.359375 14.214844 10.058594 12.949219 11.328125 C 11.679688 12.59375 10.980469 14.28125 10.980469 16.074219 C 10.980469 17.867188 11.679688 19.554688 12.949219 20.824219 L 26.25 34.125 C 27.96875 35.84375 30.765625 35.84375 32.488281 34.125 C 34.207031 32.40625 34.207031 29.605469 32.488281 27.886719 L 19.316406 14.71875 C 18.808594 14.210938 17.988281 14.210938 17.484375 14.71875 C 16.976562 15.222656 16.976562 16.042969 17.484375 16.550781 L 30.652344 29.722656 C 31.359375 30.429688 31.359375 31.582031 30.652344 32.289062 C 29.945312 33 28.792969 33 28.082031 32.289062 L 14.78125 18.988281 C 14.003906 18.210938 13.574219 17.175781 13.574219 16.074219 C 13.574219 14.972656 14.003906 13.9375 14.78125 13.160156 C 16.390625 11.554688 19.003906 11.554688 20.609375 13.160156 L 34.546875 27.097656 C 37.046875 29.597656 37.046875 33.667969 34.546875 36.167969 C 33.335938 37.378906 31.726562 38.046875 30.011719 38.046875 C 28.300781 38.046875 26.6875 37.378906 25.476562 36.167969 L 14.761719 25.453125 C 14.253906 24.945312 13.433594 24.945312 12.925781 25.453125 C 12.421875 25.957031 12.421875 26.777344 12.925781 27.285156 L 23.644531 38 C 25.34375 39.703125 27.605469 40.640625 30.011719 40.640625 C 32.417969 40.640625 34.679688 39.703125 36.378906 38 C 38.082031 36.300781 39.019531 34.039062 39.019531 31.632812 C 39.019531 29.226562 38.082031 26.964844 36.378906 25.265625 Z M 22.445312 11.328125 "/>
</g>
</svg>
