<svg version="1.2" xmlns="http://www.w3.org/2000/svg" viewBox="0 0 14 14" width="14" height="14"><style>.a{opacity:.5;fill:#fff}.b{fill:#fff}</style><path fill-rule="evenodd" class="a" d="m6.9 13.8c-2.8 0-5.3-1.6-6.4-4.2-1-2.6-0.5-5.6 1.5-7.6 2-2 5-2.5 7.6-1.5 2.6 1.1 4.2 3.6 4.2 6.4q0 1.4-0.5 2.7-0.5 1.2-1.5 2.2-1 1-2.2 1.5-1.3 0.5-2.7 0.5zm0-12.3c-2.2 0-4.1 1.4-5 3.4-0.8 2-0.3 4.3 1.2 5.8 1.6 1.6 3.9 2 5.9 1.2 2-0.8 3.3-2.8 3.3-5q0-1-0.4-2-0.4-1-1.2-1.8-0.7-0.7-1.7-1.1-1-0.5-2.1-0.5z"/><path class="b" d="m12.3 6.9q0-1-0.4-2-0.4-1-1.2-1.8-0.7-0.7-1.7-1.2-1-0.4-2.1-0.4-0.1 0-0.2-0.1-0.1 0-0.2-0.1-0.1-0.1-0.2-0.2 0-0.2 0-0.3 0-0.1 0-0.3 0.1-0.1 0.2-0.2 0-0.1 0.2-0.2 0.1-0.1 0.2-0.1 1.4 0 2.7 0.5 1.2 0.6 2.2 1.5 1 1 1.5 2.3 0.5 1.2 0.5 2.6 0 0.2 0 0.3-0.1 0.1-0.2 0.2-0.1 0.1-0.2 0.2-0.2 0-0.3 0-0.2 0-0.3 0-0.2-0.1-0.3-0.2-0.1-0.1-0.1-0.2-0.1-0.1-0.1-0.3z"/></svg>